<svg width="832" height="190" viewBox="0 0 832 190" fill="none" xmlns="http://www.w3.org/2000/svg">
<rect width="832" height="190" rx="95" fill="white"/>
<circle cx="95" cy="95" r="64" stroke="url(#paint0_linear_4_24969)" stroke-width="30"/>
<circle cx="95" cy="95" r="51.2237" stroke="url(#paint1_linear_4_24969)" stroke-width="30"/>
<circle cx="95" cy="95" r="38.4474" fill="#000C26" stroke="black" stroke-width="30"/>
<path d="M76.7697 102.272C73.0413 104.377 70.0265 107.547 68.1117 111.377C66.1969 115.207 65.4695 119.521 66.0226 123.766C70.2683 124.319 74.5824 123.592 78.412 121.677C82.2415 119.763 85.4119 116.748 87.5168 113.019M66.0227 98.6898C72.4103 99.4489 78.3569 102.335 82.9055 106.884C87.454 111.432 90.3401 117.379 91.0992 123.766C94.2657 121.941 96.9144 119.338 98.795 116.204C100.675 113.07 101.726 109.508 101.846 105.855C107.862 103.738 113.114 99.8863 116.94 94.785C120.766 89.6838 122.993 83.5627 123.341 77.1956C123.341 74.3453 122.208 71.6117 120.193 69.5962C118.177 67.5808 115.444 66.4485 112.593 66.4485C106.226 66.7956 100.105 69.023 95.004 72.8489C89.9027 76.6748 86.0505 81.9275 83.9345 87.9427C80.2814 88.0633 76.7194 89.1135 73.5853 90.9941C70.4511 92.8746 67.8482 95.5233 66.0227 98.6898ZM101.846 84.3603C101.846 85.3104 102.224 86.2216 102.896 86.8934C103.567 87.5653 104.479 87.9427 105.429 87.9427C106.379 87.9427 107.29 87.5653 107.962 86.8934C108.634 86.2216 109.011 85.3104 109.011 84.3603C109.011 83.4102 108.634 82.499 107.962 81.8272C107.29 81.1554 106.379 80.778 105.429 80.778C104.479 80.778 103.567 81.1554 102.896 81.8272C102.224 82.499 101.846 83.4102 101.846 84.3603Z" stroke="url(#paint2_linear_4_24969)" stroke-width="5" stroke-linecap="round" stroke-linejoin="round"/>
<path d="M126 59.8124C126 59.8124 132.357 59.1106 135.248 56.0555C138.285 52.847 138.486 46 138.486 46C138.486 46 138.201 54.5793 141.512 57.1742C143.461 58.7012 147.354 58.7045 149.828 58.5219C151.148 58.3179 152.064 58.274 152.064 58.274C152.064 58.274 151.148 58.4245 149.828 58.5219C147.355 58.9039 143.465 59.847 141.512 62.1138C139.364 64.608 139.351 68.9746 139.478 70.9989C139.553 71.6699 139.578 72.0865 139.578 72.0865C139.578 72.0865 139.52 71.6722 139.478 70.9989C139.241 68.8734 138.507 64.1945 136.507 62.1138C133.592 59.0807 126 59.8124 126 59.8124Z" fill="white"/>
<path d="M42 136.529C42 136.529 45.0046 136.197 46.3712 134.753C47.8065 133.236 47.9015 130 47.9015 130C47.9015 130 47.767 134.055 49.332 135.282C50.253 136.003 52.0931 136.005 53.2624 135.919C53.8865 135.822 54.3194 135.801 54.3194 135.801C54.3194 135.801 53.8865 135.873 53.2624 135.919C52.0938 136.099 50.2549 136.545 49.332 137.616C48.3166 138.795 48.3104 140.859 48.3706 141.816C48.406 142.133 48.4179 142.33 48.4179 142.33C48.4179 142.33 48.3906 142.134 48.3706 141.816C48.2585 140.811 47.9115 138.6 46.9664 137.616C45.5886 136.183 42 136.529 42 136.529Z" fill="white"/>
<path d="M213.808 109V45.448H223.216V109H213.808ZM192.496 47.368V38.92H244.528V47.368H192.496ZM271.437 110.728C266.957 110.728 263.085 109.96 259.821 108.424C256.557 106.888 253.901 104.872 251.853 102.376C249.805 99.816 248.269 96.968 247.245 93.832C246.285 90.696 245.805 87.496 245.805 84.232V82.504C245.805 79.176 246.285 75.944 247.245 72.808C248.269 69.672 249.805 66.856 251.853 64.36C253.901 61.8 256.493 59.784 259.629 58.312C262.829 56.776 266.573 56.008 270.861 56.008C276.429 56.008 281.005 57.224 284.589 59.656C288.237 62.024 290.925 65.096 292.653 68.872C294.445 72.648 295.341 76.68 295.341 80.968V85.096H249.837V78.184H288.621L286.509 81.928C286.509 78.28 285.933 75.144 284.781 72.52C283.629 69.832 281.901 67.752 279.597 66.28C277.293 64.808 274.381 64.072 270.861 64.072C267.213 64.072 264.173 64.904 261.741 66.568C259.373 68.232 257.581 70.504 256.365 73.384C255.213 76.264 254.637 79.592 254.637 83.368C254.637 87.016 255.213 90.312 256.365 93.256C257.581 96.136 259.437 98.44 261.933 100.168C264.429 101.832 267.597 102.664 271.437 102.664C275.469 102.664 278.733 101.768 281.229 99.976C283.789 98.184 285.325 96.104 285.837 93.736H294.477C293.773 97.256 292.365 100.296 290.253 102.856C288.141 105.416 285.485 107.368 282.285 108.712C279.085 110.056 275.469 110.728 271.437 110.728ZM330.41 110.728C325.994 110.728 322.154 109.96 318.89 108.424C315.69 106.888 313.034 104.84 310.922 102.28C308.81 99.656 307.21 96.776 306.122 93.64C305.098 90.504 304.586 87.368 304.586 84.232V82.504C304.586 79.24 305.098 76.04 306.122 72.904C307.21 69.768 308.81 66.952 310.922 64.456C313.098 61.896 315.786 59.848 318.986 58.312C322.186 56.776 325.93 56.008 330.218 56.008C334.506 56.008 338.346 56.808 341.738 58.408C345.194 60.008 347.946 62.28 349.994 65.224C352.106 68.104 353.29 71.528 353.546 75.496H344.714C344.266 72.296 342.794 69.64 340.298 67.528C337.802 65.352 334.442 64.264 330.218 64.264C326.57 64.264 323.53 65.096 321.098 66.76C318.666 68.424 316.842 70.696 315.626 73.576C314.41 76.456 313.802 79.72 313.802 83.368C313.802 86.888 314.41 90.12 315.626 93.064C316.842 95.944 318.666 98.248 321.098 99.976C323.594 101.64 326.698 102.472 330.41 102.472C333.29 102.472 335.786 101.96 337.898 100.936C340.01 99.912 341.706 98.536 342.986 96.808C344.266 95.08 345.034 93.128 345.29 90.952H354.122C353.93 94.984 352.746 98.472 350.57 101.416C348.458 104.36 345.642 106.664 342.122 108.328C338.666 109.928 334.762 110.728 330.41 110.728ZM366.645 109V38.92H375.861V80.776H373.557C373.557 75.72 374.197 71.368 375.477 67.72C376.821 64.008 378.869 61.16 381.621 59.176C384.373 57.192 387.893 56.2 392.181 56.2H392.565C398.709 56.2 403.349 58.248 406.485 62.344C409.621 66.376 411.189 72.168 411.189 79.72V109H401.973V77.8C401.973 73.64 400.789 70.408 398.421 68.104C396.117 65.8 393.109 64.648 389.397 64.648C385.301 64.648 382.005 66.024 379.509 68.776C377.077 71.464 375.861 75.016 375.861 79.432V109H366.645ZM421.907 109L447.155 38.92H463.091L489.107 109H479.411L455.891 45.064L460.499 47.368H449.171L454.067 45.064L431.315 109H421.907ZM436.979 88.072L440.147 79.624H470.387L473.555 88.072H436.979ZM517.226 110.536C510.506 110.536 505.29 109.096 501.578 106.216C497.93 103.336 496.042 99.4 495.914 94.408H504.554C504.682 96.392 505.674 98.28 507.53 100.072C509.45 101.8 512.682 102.664 517.226 102.664C521.322 102.664 524.458 101.864 526.634 100.264C528.81 98.6 529.898 96.584 529.898 94.216C529.898 92.104 529.098 90.472 527.498 89.32C525.898 88.104 523.306 87.304 519.722 86.92L514.154 86.344C509.29 85.832 505.322 84.392 502.25 82.024C499.178 79.592 497.642 76.2 497.642 71.848C497.642 68.584 498.474 65.8 500.138 63.496C501.802 61.128 504.106 59.336 507.05 58.12C509.994 56.84 513.386 56.2 517.226 56.2C522.986 56.2 527.658 57.48 531.242 60.04C534.826 62.6 536.682 66.408 536.81 71.464H528.17C528.106 69.416 527.146 67.688 525.29 66.28C523.498 64.808 520.81 64.072 517.226 64.072C513.642 64.072 510.922 64.808 509.066 66.28C507.21 67.752 506.282 69.608 506.282 71.848C506.282 73.768 506.922 75.304 508.202 76.456C509.546 77.608 511.722 78.344 514.73 78.664L520.298 79.24C525.802 79.816 530.218 81.352 533.546 83.848C536.874 86.28 538.538 89.736 538.538 94.216C538.538 97.416 537.61 100.264 535.754 102.76C533.962 105.192 531.466 107.112 528.266 108.52C525.066 109.864 521.386 110.536 517.226 110.536ZM573.879 110.728C569.463 110.728 565.623 109.96 562.359 108.424C559.159 106.888 556.503 104.84 554.391 102.28C552.279 99.656 550.679 96.776 549.591 93.64C548.567 90.504 548.055 87.368 548.055 84.232V82.504C548.055 79.24 548.567 76.04 549.591 72.904C550.679 69.768 552.279 66.952 554.391 64.456C556.567 61.896 559.255 59.848 562.455 58.312C565.655 56.776 569.399 56.008 573.687 56.008C577.975 56.008 581.815 56.808 585.207 58.408C588.663 60.008 591.415 62.28 593.463 65.224C595.575 68.104 596.759 71.528 597.015 75.496H588.183C587.735 72.296 586.263 69.64 583.767 67.528C581.271 65.352 577.911 64.264 573.687 64.264C570.039 64.264 566.999 65.096 564.567 66.76C562.135 68.424 560.311 70.696 559.095 73.576C557.879 76.456 557.271 79.72 557.271 83.368C557.271 86.888 557.879 90.12 559.095 93.064C560.311 95.944 562.135 98.248 564.567 99.976C567.063 101.64 570.167 102.472 573.879 102.472C576.759 102.472 579.255 101.96 581.367 100.936C583.479 99.912 585.175 98.536 586.455 96.808C587.735 95.08 588.503 93.128 588.759 90.952H597.591C597.399 94.984 596.215 98.472 594.039 101.416C591.927 104.36 589.111 106.664 585.591 108.328C582.135 109.928 578.231 110.728 573.879 110.728ZM631.905 110.728C627.425 110.728 623.553 109.96 620.289 108.424C617.025 106.888 614.369 104.872 612.321 102.376C610.273 99.816 608.737 96.968 607.713 93.832C606.753 90.696 606.273 87.496 606.273 84.232V82.504C606.273 79.176 606.753 75.944 607.713 72.808C608.737 69.672 610.273 66.856 612.321 64.36C614.369 61.8 616.961 59.784 620.097 58.312C623.297 56.776 627.041 56.008 631.329 56.008C636.897 56.008 641.473 57.224 645.057 59.656C648.705 62.024 651.393 65.096 653.121 68.872C654.913 72.648 655.809 76.68 655.809 80.968V85.096H610.305V78.184H649.089L646.977 81.928C646.977 78.28 646.401 75.144 645.249 72.52C644.097 69.832 642.369 67.752 640.065 66.28C637.761 64.808 634.849 64.072 631.329 64.072C627.681 64.072 624.641 64.904 622.209 66.568C619.841 68.232 618.049 70.504 616.833 73.384C615.681 76.264 615.105 79.592 615.105 83.368C615.105 87.016 615.681 90.312 616.833 93.256C618.049 96.136 619.905 98.44 622.401 100.168C624.897 101.832 628.065 102.664 631.905 102.664C635.937 102.664 639.201 101.768 641.697 99.976C644.257 98.184 645.793 96.104 646.305 93.736H654.945C654.241 97.256 652.833 100.296 650.721 102.856C648.609 105.416 645.953 107.368 642.753 108.712C639.553 110.056 635.937 110.728 631.905 110.728ZM668.895 109V57.736H676.191V79.72H675.039C675.039 74.664 675.711 70.408 677.055 66.952C678.463 63.432 680.575 60.776 683.391 58.984C686.207 57.128 689.759 56.2 694.047 56.2H694.431C700.895 56.2 705.663 58.216 708.735 62.248C711.871 66.28 713.439 72.104 713.439 79.72V109H704.223V77.8C704.223 73.832 703.103 70.664 700.863 68.296C698.623 65.864 695.551 64.648 691.647 64.648C687.615 64.648 684.351 65.896 681.855 68.392C679.359 70.888 678.111 74.216 678.111 78.376V109H668.895ZM751.709 110.728C748.061 110.728 744.701 110.056 741.629 108.712C738.557 107.368 735.869 105.48 733.565 103.048C731.325 100.616 729.565 97.8 728.285 94.6C727.069 91.4 726.461 87.944 726.461 84.232V82.504C726.461 78.856 727.069 75.432 728.285 72.232C729.501 69.032 731.197 66.216 733.373 63.784C735.613 61.352 738.237 59.464 741.245 58.12C744.317 56.712 747.709 56.008 751.421 56.008C755.325 56.008 758.877 56.84 762.077 58.504C765.277 60.104 767.901 62.632 769.949 66.088C771.997 69.544 773.149 74.024 773.405 79.528L769.565 73.384V38.92H778.781V109H771.485V86.248H774.173C773.917 92.072 772.701 96.808 770.525 100.456C768.349 104.04 765.597 106.664 762.269 108.328C759.005 109.928 755.485 110.728 751.709 110.728ZM752.957 102.664C756.093 102.664 758.941 101.96 761.501 100.552C764.061 99.144 766.109 97.128 767.645 94.504C769.181 91.816 769.949 88.68 769.949 85.096V80.68C769.949 77.16 769.149 74.184 767.549 71.752C766.013 69.256 763.933 67.368 761.309 66.088C758.749 64.744 755.933 64.072 752.861 64.072C749.469 64.072 746.461 64.872 743.837 66.472C741.277 68.072 739.261 70.312 737.789 73.192C736.381 76.072 735.677 79.464 735.677 83.368C735.677 87.272 736.413 90.696 737.885 93.64C739.357 96.52 741.405 98.76 744.029 100.36C746.653 101.896 749.629 102.664 752.957 102.664Z" fill="url(#paint3_linear_4_24969)"/>
<path d="M211.137 156V130.8H226.041V133.572H214.197V141.708H224.997V144.444H214.197V153.228H226.113V156H211.137ZM237.122 156L244.466 138H247.49L239.966 156H237.122ZM236.942 156L229.418 138H232.406L239.75 156H236.942ZM257.779 156.432C256.027 156.432 254.479 156.036 253.135 155.244C251.791 154.428 250.735 153.312 249.967 151.896C249.223 150.48 248.851 148.848 248.851 147C248.851 145.152 249.223 143.52 249.967 142.104C250.735 140.688 251.779 139.584 253.099 138.792C254.443 137.976 255.979 137.568 257.707 137.568C259.387 137.568 260.839 137.988 262.063 138.828C263.287 139.644 264.235 140.796 264.907 142.284C265.579 143.772 265.915 145.524 265.915 147.54H251.047L251.767 146.928C251.767 148.368 252.019 149.604 252.523 150.636C253.051 151.668 253.783 152.46 254.719 153.012C255.655 153.54 256.723 153.804 257.923 153.804C259.195 153.804 260.263 153.504 261.127 152.904C262.015 152.304 262.699 151.512 263.179 150.528L265.663 151.788C265.207 152.724 264.595 153.54 263.827 154.236C263.083 154.932 262.195 155.472 261.163 155.856C260.155 156.24 259.027 156.432 257.779 156.432ZM251.947 145.704L251.191 145.128H263.611L262.855 145.74C262.855 144.588 262.627 143.592 262.171 142.752C261.715 141.912 261.103 141.264 260.335 140.808C259.567 140.352 258.679 140.124 257.671 140.124C256.687 140.124 255.751 140.352 254.863 140.808C253.999 141.264 253.291 141.912 252.739 142.752C252.211 143.568 251.947 144.552 251.947 145.704ZM271.131 146.244C271.131 144.3 271.503 142.728 272.247 141.528C272.991 140.304 273.939 139.404 275.091 138.828C276.267 138.228 277.503 137.928 278.799 137.928V140.628C277.743 140.628 276.723 140.808 275.739 141.168C274.779 141.504 273.987 142.068 273.363 142.86C272.739 143.652 272.427 144.732 272.427 146.1L271.131 146.244ZM269.547 156V138H272.427V156H269.547ZM283.331 163.632C282.875 163.632 282.347 163.536 281.747 163.344C281.147 163.176 280.511 162.948 279.839 162.66L280.919 160.248C281.471 160.488 281.951 160.668 282.359 160.788C282.791 160.908 283.127 160.968 283.367 160.968C284.015 160.968 284.543 160.788 284.951 160.428C285.383 160.092 285.743 159.6 286.031 158.952L288.083 154.056L294.743 138H297.839L289.199 158.52C288.743 159.576 288.263 160.488 287.759 161.256C287.279 162.024 286.691 162.612 285.995 163.02C285.299 163.428 284.411 163.632 283.331 163.632ZM287.291 156L279.515 138H282.575L289.271 154.02L290.135 156H287.291ZM308.195 156.432C306.443 156.432 304.883 156.036 303.515 155.244C302.171 154.428 301.115 153.312 300.347 151.896C299.579 150.48 299.195 148.848 299.195 147C299.195 145.152 299.567 143.52 300.311 142.104C301.079 140.688 302.135 139.584 303.479 138.792C304.847 137.976 306.395 137.568 308.123 137.568C309.899 137.568 311.459 137.976 312.803 138.792C314.171 139.584 315.227 140.688 315.971 142.104C316.739 143.52 317.123 145.152 317.123 147C317.123 148.848 316.739 150.48 315.971 151.896C315.227 153.312 314.183 154.428 312.839 155.244C311.495 156.036 309.947 156.432 308.195 156.432ZM308.195 153.768C309.395 153.768 310.439 153.48 311.327 152.904C312.215 152.328 312.911 151.536 313.415 150.528C313.943 149.52 314.207 148.344 314.207 147C314.207 145.656 313.943 144.48 313.415 143.472C312.911 142.464 312.203 141.672 311.291 141.096C310.379 140.52 309.323 140.232 308.123 140.232C306.947 140.232 305.903 140.52 304.991 141.096C304.103 141.672 303.395 142.464 302.867 143.472C302.363 144.48 302.111 145.656 302.111 147C302.111 148.32 302.363 149.496 302.867 150.528C303.395 151.536 304.115 152.328 305.027 152.904C305.963 153.48 307.019 153.768 308.195 153.768ZM321.122 156V138H323.822L324.002 141.312V156H321.122ZM333.758 156V146.784H336.638V156H333.758ZM333.758 146.784C333.758 145.008 333.554 143.652 333.146 142.716C332.738 141.78 332.174 141.144 331.454 140.808C330.734 140.448 329.918 140.268 329.006 140.268C327.422 140.268 326.186 140.832 325.298 141.96C324.434 143.064 324.002 144.636 324.002 146.676H322.598C322.598 144.78 322.874 143.148 323.426 141.78C323.978 140.412 324.782 139.368 325.838 138.648C326.894 137.928 328.166 137.568 329.654 137.568C331.07 137.568 332.294 137.856 333.326 138.432C334.382 138.984 335.198 139.872 335.774 141.096C336.374 142.32 336.662 143.928 336.638 145.92V146.784H333.758ZM349.08 156.432C347.328 156.432 345.78 156.036 344.436 155.244C343.092 154.428 342.036 153.312 341.268 151.896C340.524 150.48 340.152 148.848 340.152 147C340.152 145.152 340.524 143.52 341.268 142.104C342.036 140.688 343.08 139.584 344.4 138.792C345.744 137.976 347.28 137.568 349.008 137.568C350.688 137.568 352.14 137.988 353.364 138.828C354.588 139.644 355.536 140.796 356.208 142.284C356.88 143.772 357.216 145.524 357.216 147.54H342.348L343.068 146.928C343.068 148.368 343.32 149.604 343.824 150.636C344.352 151.668 345.084 152.46 346.02 153.012C346.956 153.54 348.024 153.804 349.224 153.804C350.496 153.804 351.564 153.504 352.428 152.904C353.316 152.304 354 151.512 354.48 150.528L356.964 151.788C356.508 152.724 355.896 153.54 355.128 154.236C354.384 154.932 353.496 155.472 352.464 155.856C351.456 156.24 350.328 156.432 349.08 156.432ZM343.248 145.704L342.492 145.128H354.912L354.156 145.74C354.156 144.588 353.928 143.592 353.472 142.752C353.016 141.912 352.404 141.264 351.636 140.808C350.868 140.352 349.98 140.124 348.972 140.124C347.988 140.124 347.052 140.352 346.164 140.808C345.3 141.264 344.592 141.912 344.04 142.752C343.512 143.568 343.248 144.552 343.248 145.704ZM369.923 156V138H372.803V156H369.923ZM371.399 133.824C370.919 133.824 370.499 133.644 370.139 133.284C369.779 132.924 369.599 132.504 369.599 132.024C369.599 131.52 369.779 131.1 370.139 130.764C370.499 130.404 370.919 130.224 371.399 130.224C371.903 130.224 372.323 130.404 372.659 130.764C373.019 131.1 373.199 131.52 373.199 132.024C373.199 132.504 373.019 132.924 372.659 133.284C372.323 133.644 371.903 133.824 371.399 133.824ZM384.41 156.432C383.09 156.432 381.938 156.24 380.954 155.856C379.97 155.448 379.142 154.92 378.47 154.272C377.822 153.624 377.354 152.916 377.066 152.148L379.586 151.104C379.994 151.92 380.606 152.58 381.422 153.084C382.238 153.588 383.138 153.84 384.122 153.84C385.25 153.84 386.198 153.624 386.966 153.192C387.734 152.736 388.118 152.1 388.118 151.284C388.118 150.54 387.83 149.94 387.254 149.484C386.702 149.028 385.874 148.656 384.77 148.368L383.042 147.9C381.41 147.468 380.138 146.82 379.226 145.956C378.314 145.068 377.858 144.072 377.858 142.968C377.858 141.264 378.41 139.944 379.514 139.008C380.642 138.048 382.31 137.568 384.518 137.568C385.574 137.568 386.534 137.724 387.398 138.036C388.262 138.348 389.006 138.792 389.63 139.368C390.254 139.92 390.71 140.58 390.998 141.348L388.478 142.464C388.166 141.648 387.65 141.06 386.93 140.7C386.21 140.34 385.334 140.16 384.302 140.16C383.198 140.16 382.334 140.4 381.71 140.88C381.086 141.336 380.774 141.984 380.774 142.824C380.774 143.304 381.026 143.76 381.53 144.192C382.058 144.6 382.826 144.936 383.834 145.2L385.634 145.668C386.81 145.956 387.794 146.388 388.586 146.964C389.378 147.516 389.978 148.152 390.386 148.872C390.794 149.592 390.998 150.36 390.998 151.176C390.998 152.256 390.71 153.192 390.134 153.984C389.558 154.776 388.778 155.388 387.794 155.82C386.81 156.228 385.682 156.432 384.41 156.432ZM414.862 156L414.718 153.048V146.496C414.718 145.08 414.562 143.916 414.25 143.004C413.938 142.068 413.446 141.36 412.774 140.88C412.102 140.4 411.226 140.16 410.146 140.16C409.162 140.16 408.31 140.364 407.59 140.772C406.894 141.156 406.318 141.78 405.862 142.644L403.27 141.636C403.726 140.796 404.278 140.076 404.926 139.476C405.574 138.852 406.33 138.384 407.194 138.072C408.058 137.736 409.042 137.568 410.146 137.568C411.826 137.568 413.206 137.904 414.286 138.576C415.39 139.224 416.218 140.196 416.77 141.492C417.322 142.764 417.586 144.348 417.562 146.244L417.526 156H414.862ZM409.462 156.432C407.35 156.432 405.694 155.952 404.494 154.992C403.318 154.008 402.73 152.652 402.73 150.924C402.73 149.1 403.33 147.708 404.53 146.748C405.754 145.764 407.458 145.272 409.642 145.272H414.79V147.684H410.29C408.61 147.684 407.41 147.96 406.69 148.512C405.994 149.064 405.646 149.856 405.646 150.888C405.646 151.824 405.994 152.568 406.69 153.12C407.386 153.648 408.358 153.912 409.606 153.912C410.638 153.912 411.538 153.696 412.306 153.264C413.074 152.808 413.662 152.172 414.07 151.356C414.502 150.516 414.718 149.532 414.718 148.404H415.942C415.942 150.852 415.39 152.808 414.286 154.272C413.182 155.712 411.574 156.432 409.462 156.432ZM437.32 156.432C436 156.432 434.848 156.24 433.864 155.856C432.88 155.448 432.052 154.92 431.38 154.272C430.732 153.624 430.264 152.916 429.976 152.148L432.496 151.104C432.904 151.92 433.516 152.58 434.332 153.084C435.148 153.588 436.048 153.84 437.032 153.84C438.16 153.84 439.108 153.624 439.876 153.192C440.644 152.736 441.028 152.1 441.028 151.284C441.028 150.54 440.74 149.94 440.164 149.484C439.612 149.028 438.784 148.656 437.68 148.368L435.952 147.9C434.32 147.468 433.048 146.82 432.136 145.956C431.224 145.068 430.768 144.072 430.768 142.968C430.768 141.264 431.32 139.944 432.424 139.008C433.552 138.048 435.22 137.568 437.428 137.568C438.484 137.568 439.444 137.724 440.308 138.036C441.172 138.348 441.916 138.792 442.54 139.368C443.164 139.92 443.62 140.58 443.908 141.348L441.388 142.464C441.076 141.648 440.56 141.06 439.84 140.7C439.12 140.34 438.244 140.16 437.212 140.16C436.108 140.16 435.244 140.4 434.62 140.88C433.996 141.336 433.684 141.984 433.684 142.824C433.684 143.304 433.936 143.76 434.44 144.192C434.968 144.6 435.736 144.936 436.744 145.2L438.544 145.668C439.72 145.956 440.704 146.388 441.496 146.964C442.288 147.516 442.888 148.152 443.296 148.872C443.704 149.592 443.908 150.36 443.908 151.176C443.908 152.256 443.62 153.192 443.044 153.984C442.468 154.776 441.688 155.388 440.704 155.82C439.72 156.228 438.592 156.432 437.32 156.432ZM454.558 156.432C452.806 156.432 451.45 155.976 450.49 155.064C449.53 154.152 449.05 152.868 449.05 151.212V132.384H451.93V150.924C451.93 151.836 452.17 152.544 452.65 153.048C453.154 153.528 453.85 153.768 454.738 153.768C455.026 153.768 455.302 153.732 455.566 153.66C455.854 153.564 456.226 153.348 456.682 153.012L457.798 155.352C457.174 155.76 456.61 156.036 456.106 156.18C455.602 156.348 455.086 156.432 454.558 156.432ZM445.918 140.556V138H457.33V140.556H445.918ZM472.378 156L472.234 153.048V146.496C472.234 145.08 472.078 143.916 471.766 143.004C471.454 142.068 470.962 141.36 470.29 140.88C469.618 140.4 468.742 140.16 467.662 140.16C466.678 140.16 465.826 140.364 465.106 140.772C464.41 141.156 463.834 141.78 463.378 142.644L460.786 141.636C461.242 140.796 461.794 140.076 462.442 139.476C463.09 138.852 463.846 138.384 464.71 138.072C465.574 137.736 466.558 137.568 467.662 137.568C469.342 137.568 470.722 137.904 471.802 138.576C472.906 139.224 473.734 140.196 474.286 141.492C474.838 142.764 475.102 144.348 475.078 146.244L475.042 156H472.378ZM466.978 156.432C464.866 156.432 463.21 155.952 462.01 154.992C460.834 154.008 460.246 152.652 460.246 150.924C460.246 149.1 460.846 147.708 462.046 146.748C463.27 145.764 464.974 145.272 467.158 145.272H472.306V147.684H467.806C466.126 147.684 464.926 147.96 464.206 148.512C463.51 149.064 463.162 149.856 463.162 150.888C463.162 151.824 463.51 152.568 464.206 153.12C464.902 153.648 465.874 153.912 467.122 153.912C468.154 153.912 469.054 153.696 469.822 153.264C470.59 152.808 471.178 152.172 471.586 151.356C472.018 150.516 472.234 149.532 472.234 148.404H473.458C473.458 150.852 472.906 152.808 471.802 154.272C470.698 155.712 469.09 156.432 466.978 156.432ZM481.225 146.244C481.225 144.3 481.597 142.728 482.341 141.528C483.085 140.304 484.033 139.404 485.185 138.828C486.361 138.228 487.597 137.928 488.893 137.928V140.628C487.837 140.628 486.817 140.808 485.833 141.168C484.873 141.504 484.081 142.068 483.457 142.86C482.833 143.652 482.521 144.732 482.521 146.1L481.225 146.244ZM479.641 156V138H482.521V156H479.641ZM493.029 156.504C492.477 156.504 491.997 156.312 491.589 155.928C491.205 155.52 491.013 155.052 491.013 154.524C491.013 153.972 491.205 153.504 491.589 153.12C491.997 152.712 492.477 152.508 493.029 152.508C493.581 152.508 494.049 152.712 494.433 153.12C494.817 153.504 495.009 153.972 495.009 154.524C495.009 155.052 494.817 155.52 494.433 155.928C494.049 156.312 493.581 156.504 493.029 156.504Z" fill="black"/>
<defs>
<linearGradient id="paint0_linear_4_24969" x1="95" y1="16" x2="95" y2="174" gradientUnits="userSpaceOnUse">
<stop stop-color="#111AFF"/>
<stop offset="1" stop-color="#FF00E5"/>
</linearGradient>
<linearGradient id="paint1_linear_4_24969" x1="95" y1="28.7763" x2="95" y2="161.224" gradientUnits="userSpaceOnUse">
<stop stop-color="#0F15BD"/>
<stop offset="1" stop-color="#A40694"/>
</linearGradient>
<linearGradient id="paint2_linear_4_24969" x1="94.5915" y1="66.4485" x2="93.9287" y2="138.47" gradientUnits="userSpaceOnUse">
<stop stop-color="white"/>
<stop offset="1" stop-color="#FF00E5"/>
</linearGradient>
<linearGradient id="paint3_linear_4_24969" x1="190" y1="76.5" x2="788" y2="76.5" gradientUnits="userSpaceOnUse">
<stop stop-color="#3A0FD5"/>
<stop offset="1" stop-color="#C000AD"/>
</linearGradient>
</defs>
</svg>
