<svg width="82" height="82" viewBox="0 0 82 82" fill="none" xmlns="http://www.w3.org/2000/svg">
<rect x="1" y="1" width="80" height="80" rx="40" stroke="black"/>
<path d="M22.1773 49.9513V27.2745H19.125V49.9553L22.1773 49.9513ZM62.875 49.9513V27.1422H59.8227V49.9533L62.875 49.9513ZM57.393 21.7193C55.0753 21.8007 52.0494 22.0388 49.7195 22.7367L50.5945 25.6629C52.5276 25.085 55.2218 24.8489 57.4988 24.7696L57.393 21.7193ZM49.7195 22.7367C47.6948 23.3431 45.4177 24.5295 43.6413 25.5571L45.1715 28.1983C46.9012 27.1972 48.9259 26.1635 50.5945 25.6629L49.7195 22.7367ZM24.5907 24.8835C26.5564 25.0036 28.7826 25.2376 30.4369 25.6751L31.2142 22.7225C29.2608 22.2056 26.7863 21.9594 24.7779 21.8353L24.5907 24.8835ZM30.4369 25.6751C32.3945 26.192 34.8038 27.3233 36.7919 28.3734L38.2163 25.6751C36.1916 24.6027 33.5279 23.335 31.2163 22.7245L30.4369 25.6751ZM45.0291 59.2853C47.0456 58.2108 49.5445 57.0265 51.5631 56.4934L50.7858 53.5428C48.4049 54.1696 45.6456 55.4983 43.5945 56.5931L45.0291 59.2853ZM51.5631 56.4934C53.1971 56.062 55.3927 55.826 57.3442 55.7039L57.1529 52.6577C55.1587 52.7838 52.7189 53.03 50.7837 53.5408L51.5631 56.4934ZM38.4055 56.5911C36.3544 55.4983 33.5971 54.1696 31.2142 53.5408L30.4369 56.4914C32.4555 57.0265 34.9544 58.2108 36.9689 59.2853L38.4055 56.5911ZM31.2142 53.5408C29.2811 53.0321 26.8392 52.7838 24.8451 52.6577L24.6558 55.7039C26.6073 55.826 28.8029 56.062 30.4349 56.4934L31.2142 53.5408ZM59.8227 49.9533C59.8227 51.3492 58.6669 52.564 57.1529 52.6577L57.3442 55.7039C60.3436 55.5167 62.875 53.0768 62.875 49.9513L59.8227 49.9533ZM62.875 27.1422C62.875 24.1632 60.5044 21.6074 57.393 21.7152L57.4988 24.7696C58.7503 24.7248 59.8227 25.7524 59.8227 27.1382L62.875 27.1422ZM19.125 49.9513C19.125 53.0768 21.6564 55.5187 24.6558 55.7079L24.8451 52.6577C23.3311 52.564 22.1773 51.3452 22.1773 49.9513H19.125ZM43.5945 56.5931C42.7953 57.0166 41.9045 57.2381 41 57.2381C40.0955 57.2381 39.2047 57.0146 38.4055 56.5911L36.9709 59.2853C38.2118 59.9438 39.5952 60.2881 41 60.2881C42.4048 60.2881 43.7882 59.9438 45.0291 59.2853L43.5945 56.5931ZM43.6413 25.553C42.8204 26.0275 41.8931 26.2873 40.9452 26.3082C39.9973 26.3292 39.0594 26.1108 38.2183 25.6731L36.7919 28.3734C38.0902 29.0529 39.5393 29.3909 41.0044 29.36C42.4695 29.329 43.903 28.928 45.1715 28.1943L43.6413 25.553ZM22.1773 27.2745C22.1773 25.8562 23.3006 24.8042 24.5907 24.8835L24.7779 21.8353C21.6076 21.642 19.125 24.2263 19.125 27.2745H22.1773Z" fill="black"/>
<path d="M41 28.2939V58.8172" stroke="black" stroke-width="1.5"/>
</svg>
