<svg width="24" height="25" viewBox="0 0 24 25" fill="none" xmlns="http://www.w3.org/2000/svg">
<path d="M2.5 7C2.5 5.114 2.5 4.172 3.086 3.586C3.672 3 4.614 3 6.5 3C8.386 3 9.328 3 9.914 3.586C10.5 4.172 10.5 5.114 10.5 7C10.5 8.886 10.5 9.828 9.914 10.414C9.328 11 8.386 11 6.5 11C4.614 11 3.672 11 3.086 10.414C2.5 9.828 2.5 8.886 2.5 7ZM13.5 18C13.5 16.114 13.5 15.172 14.086 14.586C14.672 14 15.614 14 17.5 14C19.386 14 20.328 14 20.914 14.586C21.5 15.172 21.5 16.114 21.5 18C21.5 19.886 21.5 20.828 20.914 21.414C20.328 22 19.386 22 17.5 22C15.614 22 14.672 22 14.086 21.414C13.5 20.828 13.5 19.886 13.5 18ZM2.5 18C2.5 16.114 2.5 15.172 3.086 14.586C3.672 14 4.614 14 6.5 14C8.386 14 9.328 14 9.914 14.586C10.5 15.172 10.5 16.114 10.5 18C10.5 19.886 10.5 20.828 9.914 21.414C9.328 22 8.386 22 6.5 22C4.614 22 3.672 22 3.086 21.414C2.5 20.828 2.5 19.886 2.5 18ZM13.5 7C13.5 5.114 13.5 4.172 14.086 3.586C14.672 3 15.614 3 17.5 3C19.386 3 20.328 3 20.914 3.586C21.5 4.172 21.5 5.114 21.5 7C21.5 8.886 21.5 9.828 20.914 10.414C20.328 11 19.386 11 17.5 11C15.614 11 14.672 11 14.086 10.414C13.5 9.828 13.5 8.886 13.5 7Z" stroke="black" stroke-opacity="0.7" stroke-width="1.5"/>
</svg>
