<svg width="80" height="80" viewBox="0 0 80 80" fill="none" xmlns="http://www.w3.org/2000/svg">
<rect x="0.5" y="0.5" width="79" height="79" rx="39.5" stroke="black"/>
<path d="M34.8267 20.1645C36.4433 19.3971 38.2105 18.999 40 18.999C41.7896 18.999 43.5567 19.3971 45.1734 20.1645L60.7869 27.4847C64.1844 29.0762 64.1844 34.5879 60.7869 36.1794L45.1757 43.4995C43.5588 44.2673 41.7912 44.6656 40.0012 44.6656C38.2112 44.6656 36.4436 44.2673 34.8267 43.4995L19.2132 36.1794C15.8156 34.5879 15.8156 29.0762 19.2132 27.4847L34.8267 20.1645Z" stroke="black" stroke-width="1.5"/>
<path d="M16.665 31.832V44.6663M56.3345 38.8325V50.7917C56.3345 53.1439 55.1608 55.3467 53.1026 56.4855C49.6747 58.3873 44.191 61.0008 40 61.0008C35.8091 61.0008 30.3253 58.3849 26.8974 56.4878C24.8416 55.3467 23.6655 53.1439 23.6655 50.7941V38.8325" stroke="black" stroke-width="1.5" stroke-linecap="round"/>
</svg>
