<svg width="17" height="17" viewBox="0 0 17 17" fill="none" xmlns="http://www.w3.org/2000/svg">
<g id="solar:star-linear" clip-path="url(#clip0_1794_3727)">
<path id="Vector" d="M6.48338 3.83069C7.38084 2.22135 7.82921 1.41669 8.5 1.41669C9.17079 1.41669 9.61917 2.22135 10.5166 3.83069L10.749 4.24719C11.004 4.70477 11.1315 4.93356 11.3298 5.08444C11.5281 5.23531 11.776 5.29127 12.2719 5.40319L12.7224 5.50519C14.4649 5.89973 15.3354 6.09665 15.543 6.76319C15.7498 7.42902 15.1562 8.1239 13.9683 9.51294L13.6609 9.87206C13.3238 10.2666 13.1545 10.4642 13.0787 10.7079C13.0029 10.9523 13.0284 11.2158 13.0794 11.7421L13.1261 12.2216C13.3053 14.0753 13.3953 15.0018 12.8527 15.4134C12.3101 15.8256 11.4941 15.4495 9.86355 14.6986L9.44067 14.5046C8.97742 14.2906 8.74579 14.1844 8.5 14.1844C8.25421 14.1844 8.02259 14.2906 7.55934 14.5046L7.13717 14.6986C5.50588 15.4495 4.68988 15.8249 4.148 15.4141C3.60471 15.0018 3.69467 14.0753 3.87388 12.2216L3.92063 11.7428C3.97163 11.2158 3.99713 10.9523 3.92063 10.7086C3.84555 10.4642 3.67625 10.2666 3.33909 9.87277L3.03167 9.51294C1.8438 8.1246 1.25021 7.42973 1.45705 6.76319C1.66459 6.09665 2.53584 5.89902 4.27834 5.50519L4.72884 5.40319C5.22396 5.29127 5.47117 5.23531 5.67021 5.08444C5.86855 4.93356 5.99605 4.70477 6.25105 4.24719L6.48338 3.83069Z" fill="#FFD942" stroke="#FFD942" stroke-width="1.5"/>
</g>
<defs>
<clipPath id="clip0_1794_3727">
<rect width="17" height="17" fill="white"/>
</clipPath>
</defs>
</svg>
