<svg width="16" height="16" viewBox="0 0 16 16" fill="none" xmlns="http://www.w3.org/2000/svg">
<g clip-path="url(#clip0_1302_2494)">
<path d="M6.14439 3.84582C6.93626 2.42582 7.33189 1.71582 7.92376 1.71582C8.51564 1.71582 8.91126 2.42582 9.70314 3.84582L9.90814 4.21332C10.1331 4.61707 10.2456 4.81895 10.4206 4.95207C10.5956 5.0852 10.8144 5.13457 11.2519 5.23332L11.6494 5.32332C13.1869 5.67145 13.955 5.8452 14.1381 6.43332C14.3206 7.02082 13.7969 7.63395 12.7488 8.85957L12.4775 9.17645C12.18 9.52457 12.0306 9.69895 11.9638 9.91395C11.8969 10.1296 11.9194 10.3621 11.9644 10.8264L12.0056 11.2496C12.1638 12.8852 12.2431 13.7027 11.7644 14.0658C11.2856 14.4296 10.5656 14.0977 9.12689 13.4352L8.75376 13.2639C8.34501 13.0752 8.14064 12.9814 7.92376 12.9814C7.70689 12.9814 7.50251 13.0752 7.09376 13.2639L6.72126 13.4352C5.28189 14.0977 4.56189 14.4289 4.08376 14.0664C3.60439 13.7027 3.68376 12.8852 3.84189 11.2496L3.88314 10.8271C3.92814 10.3621 3.95064 10.1296 3.88314 9.91457C3.81689 9.69895 3.66751 9.52457 3.37001 9.17707L3.09876 8.85957C2.05064 7.63457 1.52689 7.02145 1.70939 6.43332C1.89251 5.8452 2.66126 5.67082 4.19876 5.32332L4.59626 5.23332C5.03314 5.13457 5.25126 5.0852 5.42689 4.95207C5.60189 4.81895 5.71439 4.61707 5.93939 4.21332L6.14439 3.84582Z" fill="#B59410" stroke="#B59410" stroke-width="1.5"/>
</g>
<defs>
<clipPath id="clip0_1302_2494">
<rect width="15" height="15" fill="white" transform="translate(0.423767 0.46582)"/>
</clipPath>
</defs>
</svg>
