<svg width="80" height="80" viewBox="0 0 80 80" fill="none" xmlns="http://www.w3.org/2000/svg">
<rect x="0.5" y="0.5" width="79" height="79" rx="39.5" stroke="black"/>
<path d="M37.8753 27.6175C38.8208 25.9182 39.2935 25.0723 40.0001 25.0723C40.7067 25.0723 41.1794 25.9182 42.1248 27.6175L42.3687 28.0554C42.6374 28.538 42.7717 28.7769 42.9807 28.9361C43.1922 29.0954 43.4534 29.1551 43.9759 29.272L44.4486 29.3815C46.2848 29.797 47.2028 30.0035 47.4218 30.7051C47.6407 31.4092 47.0138 32.1407 45.7623 33.6036L45.4389 33.9818C45.0831 34.3973 44.9039 34.6038 44.8243 34.8625C44.7447 35.1213 44.7721 35.3975 44.8243 35.9523L44.8741 36.4573C45.0632 38.4104 45.1577 39.3882 44.588 39.8211C44.0157 40.254 43.1549 39.8584 41.4357 39.0673L40.9928 38.8632C40.5027 38.6393 40.2588 38.5274 40.0001 38.5274C39.7413 38.5274 39.4975 38.6393 39.0074 38.8632L38.5645 39.0673C36.8453 39.8609 35.9845 40.254 35.4122 39.8211C34.84 39.3882 34.937 38.4104 35.1261 36.4573L35.1759 35.9523C35.2281 35.3975 35.2555 35.1213 35.1759 34.8625C35.0962 34.6063 34.9171 34.3973 34.5613 33.9818L34.2379 33.6036C32.9864 32.1407 32.3595 31.4092 32.5784 30.7051C32.7973 30.0035 33.7154 29.797 35.5516 29.3815L36.0243 29.272C36.5468 29.1551 36.808 29.0978 37.0195 28.9361C37.2285 28.7769 37.3628 28.538 37.6315 28.0554L37.8753 27.6175Z" stroke="black" stroke-width="1.5"/>
<path d="M57.4159 32.5361C57.4159 34.8232 56.9655 37.0879 56.0902 39.2009C55.215 41.3139 53.9321 43.2338 52.3149 44.8511C50.6977 46.4683 48.7778 47.7511 46.6648 48.6264C44.5518 49.5016 42.2871 49.9521 40 49.9521C37.7129 49.9521 35.4482 49.5016 33.3352 48.6264C31.2222 47.7511 29.3022 46.4683 27.685 44.8511C26.0678 43.2338 24.7849 41.3139 23.9097 39.2009C23.0345 37.0879 22.584 34.8232 22.584 32.5361C22.584 27.9171 24.4189 23.4873 27.685 20.2211C30.9511 16.955 35.381 15.1201 40 15.1201C44.619 15.1201 49.0488 16.955 52.3149 20.2211C55.5811 23.4873 57.4159 27.9171 57.4159 32.5361Z" stroke="black" stroke-width="1.5"/>
<path d="M28.4332 47.4648L26.8483 53.2445C25.2859 58.947 24.5046 61.7982 25.5471 63.3582C25.9129 63.9055 26.403 64.3434 26.9727 64.6345C28.5949 65.4605 31.1028 64.1543 36.1161 61.5419C37.7831 60.6711 38.6191 60.2382 39.5048 60.1437C39.8339 60.1085 40.1659 60.1085 40.495 60.1437C41.3807 60.2382 42.2142 60.6736 43.8837 61.5419C48.897 64.1543 51.4049 65.4605 53.027 64.6345C53.5968 64.3434 54.0869 63.9055 54.4527 63.3582C55.4976 61.7982 54.7139 58.947 53.1514 53.2445L51.5666 47.4648" stroke="black" stroke-width="1.5" stroke-linecap="round"/>
</svg>
