<svg width="15" height="15" viewBox="0 0 15 15" fill="none" xmlns="http://www.w3.org/2000/svg">
<path d="M5.72065 3.84582C6.51252 2.42582 6.90815 1.71582 7.50002 1.71582C8.0919 1.71582 8.48752 2.42582 9.2794 3.84582L9.4844 4.21332C9.7094 4.61707 9.8219 4.81895 9.9969 4.95207C10.1719 5.0852 10.3906 5.13457 10.8281 5.23332L11.2256 5.32332C12.7631 5.67145 13.5313 5.8452 13.7144 6.43332C13.8969 7.02082 13.3731 7.63395 12.325 8.85957L12.0538 9.17645C11.7563 9.52457 11.6069 9.69895 11.54 9.91395C11.4731 10.1296 11.4956 10.3621 11.5406 10.8264L11.5819 11.2496C11.74 12.8852 11.8194 13.7027 11.3406 14.0658C10.8619 14.4296 10.1419 14.0977 8.70315 13.4352L8.33002 13.2639C7.92127 13.0752 7.7169 12.9814 7.50002 12.9814C7.28315 12.9814 7.07877 13.0752 6.67002 13.2639L6.29752 13.4352C4.85815 14.0977 4.13815 14.4289 3.66002 14.0664C3.18065 13.7027 3.26002 12.8852 3.41815 11.2496L3.4594 10.8271C3.5044 10.3621 3.5269 10.1296 3.4594 9.91457C3.39315 9.69895 3.24377 9.52457 2.94627 9.17707L2.67502 8.85957C1.6269 7.63457 1.10315 7.02145 1.28565 6.43332C1.46877 5.8452 2.23752 5.67082 3.77502 5.32332L4.17252 5.23332C4.6094 5.13457 4.82752 5.0852 5.00315 4.95207C5.17815 4.81895 5.29065 4.61707 5.51565 4.21332L5.72065 3.84582Z" fill="#C4C4C4" stroke="#C4C4C4" stroke-width="1.5"/>
</svg>
